<?xml version="1.0" ?><!DOCTYPE svg  PUBLIC '-//W3C//DTD SVG 1.1//EN'  'http://www.w3.org/Graphics/SVG/1.1/DTD/svg11.dtd'><svg enable-background="new 0 0 512 512" id="Layer_1" version="1.1" viewBox="0 0 512 512" xml:space="preserve" xmlns="http://www.w3.org/2000/svg" xmlns:xlink="http://www.w3.org/1999/xlink"><g><path d="M254.7,507.8C116.1,507.3,5.3,393.9,6.5,254.8C7.6,118.1,117.8,4.6,258.1,6.3   C395.3,7.8,505,121.1,503.5,260C502,396,392.7,507.6,254.7,507.8z M254.7,488.2c124.4,0.4,227.8-100.8,229.2-228.5   c1.4-130.1-102.5-232.6-226.4-233.9c-126-1.3-230.7,100.9-231.4,228.8C25.5,384.4,127.6,488.2,254.7,488.2z" fill="#040404"/><path d="M431.5,281.6c0,25.2-0.1,50.3,0.1,75.5c0,3.4-0.7,4.5-4.4,4.5c-27.3-0.2-54.6-0.1-81.9,0   c-3.5,0-4.6-0.9-4.4-4.4c0.3-6.5,0.3-13,0-19.5c-0.2-3.5,1.1-4,4.2-4c15.5,0.1,31-0.1,46.5,0.2c3.9,0.1,5.5-0.7,5.4-5.1   c-0.3-9-0.1-9-9.2-9c-14.2,0-28.3-0.1-42.5,0.1c-3.6,0.1-4.3-1.1-4.3-4.5c0.1-36.6,0.1-73.3,0-109.9c0-3.3,0.5-4.5,4.2-4.5   c27.5,0.2,55,0.2,82.4,0c3.5,0,4.1,1.1,4,4.2C431.4,230.7,431.5,256.1,431.5,281.6z M396.8,261c0-9.5-0.1-19,0.1-28.4   c0-2.8-0.7-3.8-3.6-3.6c-4.6,0.2-9.3,0.2-14,0c-2.8-0.1-3.6,0.7-3.6,3.6c0.1,18.5,0.1,36.9,0,55.4c0,2.9,0.5,4.2,3.8,4   c4.5-0.3,9-0.3,13.5,0c3.1,0.2,4-0.9,3.9-3.9C396.6,279,396.8,270,396.8,261z" fill="#020202"/><path d="M326.9,281.5c0,25.2-0.1,50.3,0.1,75.4c0,3.8-1,4.7-4.7,4.7c-27.3-0.2-54.6-0.1-81.9,0   c-3.4,0-4.6-0.7-4.5-4.3c0.3-6.6,0.2-13.3,0-20c-0.1-2.8,0.8-3.6,3.6-3.6c16,0.1,32,0,48,0.1c3.5,0,4.5-0.8,4.5-4.4   c-0.2-9.7,0-9.7-9.5-9.7c-14,0-28-0.2-42,0.1c-3.9,0.1-4.6-1.2-4.6-4.8c0.1-36.5,0.2-73,0-109.4c0-4.1,1.3-4.8,5-4.8   c27.1,0.2,54.3,0.2,81.4,0c3.6,0,4.7,0.7,4.7,4.6C326.8,230.8,326.9,256.2,326.9,281.5z M291.9,260.2c0-9.2-0.2-18.3,0.1-27.5   c0.1-3.2-1-3.9-3.9-3.8c-4.7,0.2-9.3,0.2-14,0c-2.4-0.1-3.1,0.7-3.1,3.1c0.1,18.8,0.1,37.7,0,56.5c0,2.6,0.7,3.5,3.3,3.4   c4.7-0.2,9.3-0.2,14,0c2.9,0.1,3.7-0.8,3.6-3.7C291.8,278.9,291.9,269.6,291.9,260.2z" fill="#020202"/><path d="M173.1,236.1c0,26.3-0.1,52.7,0.1,79c0,3.6-0.7,4.8-4.6,4.8c-27.2-0.2-54.3-0.2-81.5,0   c-3.8,0-4.7-1.1-4.7-4.7c0.1-36.5,0.1-73,0-109.5c0-3.6,0.6-4.8,4.6-4.7c15.7,0.3,31.3,0,47,0.2c3.6,0,4.4-1,4.3-4.4   c-0.2-13.3,0.1-26.7-0.2-40c-0.1-3.9,1.1-4.8,4.8-4.6c8.3,0.3,16.7,0.3,25,0c4-0.2,5.3,0.8,5.3,5.1   C173,183.5,173.1,209.8,173.1,236.1z M138.3,260.2c0-9.3-0.1-18.6,0.1-27.9c0-2.6-0.6-3.5-3.3-3.3c-5,0.2-10,0.1-15,0   c-2.1-0.1-2.9,0.6-2.9,2.8c0.1,19,0.1,37.9,0,56.9c0,2.9,1.2,3.3,3.6,3.2c4.7-0.1,9.3-0.2,14,0c3,0.2,3.6-1,3.6-3.7   C138.2,278.9,138.3,269.5,138.3,260.2z" fill="#020202"/><path d="M187.1,260.5c0-18.3,0.1-36.7-0.1-55c0-3.9,1.1-4.7,4.7-4.6c9,0.3,18,0.2,27,0c2.5,0,3.4,0.6,3.4,3.3   c-0.1,37.3-0.1,74.6,0,112c0,2.8-0.7,3.7-3.6,3.6c-9-0.2-18-0.2-27,0c-3.5,0.1-4.5-0.8-4.5-4.4   C187.2,297.2,187.1,278.8,187.1,260.5z" fill="#020202"/><path d="M222,171.1c-0.4,4.5,2.4,12-1,15.1c-3,2.8-10.4,0.8-15.8,0.8c-5,0-10-0.1-15,0.1c-2.3,0.1-3.2-0.6-3.1-3   c0.1-9.5,0.1-19,0-28.4c0-2.5,0.5-3.5,3.3-3.5c9.6,0.2,19.3,0.1,28.9,0c2.2,0,2.9,0.8,2.8,2.9C221.9,160,222,165,222,171.1z" fill="#040404"/></g></svg>